# xmcd CD database file
#
# Track frame offsets:
#	150
#	15802
#	34858
#	47434
#	64746
#	78439
#	93056
#	115571
#	128887
#	145810
#	156556
#	172922
#	190039
#	206917
#	217550
#	231935
#	259583
#
# Disc length: 3704 seconds
#
# Revision: 3
# Processed by: cddbd v1.4PL0 Copyright (c) Steve Scherf et al.
# Submitted via: CDex 1.40Release
#
DISCID=d20e7611
DTITLE=Duncan Dhu - Crepusculo
DYEAR=2001
DGENRE=Blues
TTITLE0=Nada
TTITLE1=Siempre (al abandonarnos)
TTITLE2=Desnuda
TTITLE3=Nunca me enamoraria de noche (Jack Nicholson no miente)
TTITLE4=Como dioses pequeños
TTITLE5=Aguas tranquilas
TTITLE6=Acuerdate
TTITLE7=Te quiero
TTITLE8=Lobos
TTITLE9=Piezas (pensando en ti todo encaja otra vez)
TTITLE10=Y la tarde esta muriendo
TTITLE11=Hasta que la luz nos despierte
TTITLE12=Y es que el amor
TTITLE13=Imagino
TTITLE14=Tu
TTITLE15=Balada
TTITLE16=Pista de datos (Videoclip Siempre)
EXTD=YEAR: 2001 ID3G: 0
EXTT0=
EXTT1=
EXTT2=
EXTT3=
EXTT4=
EXTT5=
EXTT6=
EXTT7=
EXTT8=
EXTT9=
EXTT10=
EXTT11=
EXTT12=
EXTT13=
EXTT14=
EXTT15=
EXTT16=
PLAYORDER=
